<svg xmlns="http://www.w3.org/2000/svg" width="1200" height="900" viewBox="0 0 1200 900" fill="none">
  <title>Empty state — success</title>
  <desc>Brand-aligned success illustration for TARIEL.</desc>

<defs>
  <filter id="shadow" x="-20%" y="-20%" width="140%" height="160%">
    <feDropShadow dx="0" dy="18" stdDeviation="24" flood-color="#0F172A" flood-opacity="0.10"/>
  </filter>
  <filter id="softShadow" x="-20%" y="-20%" width="140%" height="160%">
    <feDropShadow dx="0" dy="10" stdDeviation="16" flood-color="#0F172A" flood-opacity="0.08"/>
  </filter>
  <linearGradient id="blueGrad" x1="0" y1="0" x2="1" y2="1">
    <stop offset="0%" stop-color="#60A5FA"/>
    <stop offset="100%" stop-color="#2563EB"/>
  </linearGradient>
  <linearGradient id="greenGrad" x1="0" y1="0" x2="1" y2="1">
    <stop offset="0%" stop-color="#4ADE80"/>
    <stop offset="100%" stop-color="#16A34A"/>
  </linearGradient>
  <linearGradient id="redGrad" x1="0" y1="0" x2="1" y2="1">
    <stop offset="0%" stop-color="#F87171"/>
    <stop offset="100%" stop-color="#DC2626"/>
  </linearGradient>
  <radialGradient id="orbBlue" cx="50%" cy="50%" r="60%">
    <stop offset="0%" stop-color="#DBEAFE" stop-opacity="0.95"/>
    <stop offset="100%" stop-color="#DBEAFE" stop-opacity="0"/>
  </radialGradient>
  <radialGradient id="orbGreen" cx="50%" cy="50%" r="60%">
    <stop offset="0%" stop-color="#DCFCE7" stop-opacity="0.95"/>
    <stop offset="100%" stop-color="#DCFCE7" stop-opacity="0"/>
  </radialGradient>
  <radialGradient id="orbRed" cx="50%" cy="50%" r="60%">
    <stop offset="0%" stop-color="#FEE2E2" stop-opacity="0.95"/>
    <stop offset="100%" stop-color="#FEE2E2" stop-opacity="0"/>
  </radialGradient>
</defs>


    <g opacity="0.07" transform="translate(760 70) scale(0.42)">
      <g transform="translate(64.000,146.168) scale(0.825806452)">
        <path d="M 0.00 0.00 L 128.00 201.00 L 339.00 203.00 L 339.00 654.00 L 628.00 886.00 L 1038.00 474.00 L 1038.00 227.00 L 562.00 226.00 L 562.00 571.00 L 719.00 414.00 L 846.00 416.00 L 845.00 456.00 L 634.00 665.00 L 538.00 588.00 L 538.00 200.00 L 893.00 199.00 L 1085.00 0.00 Z M 362.00 478.00 L 516.00 601.00 L 515.00 768.00 L 361.00 644.00 Z M 1015.00 247.00 L 1016.00 467.00 L 626.00 858.00 L 538.00 787.00 L 538.00 618.00 L 639.00 694.00 L 867.00 463.00 L 867.00 393.00 L 712.00 392.00 L 584.00 520.00 L 582.00 249.00 Z M 37.00 20.00 L 1038.00 23.00 L 885.00 177.00 L 517.00 177.00 L 515.00 572.00 L 361.00 450.00 L 360.00 180.00 L 140.00 180.00 Z" fill="none" stroke="#16A34A" stroke-width="10" />
      </g>
    </g>

  <ellipse cx="600" cy="700" rx="210" ry="28" fill="#CBD5E1" opacity="0.35"/>
  <circle cx="600" cy="370" r="230" fill="url(#orbGreen)"/>
  <g filter="url(#shadow)">
    <rect x="318" y="208" width="564" height="360" rx="32" fill="#FFFFFF" stroke="#E2E8F0" stroke-width="4"/>
    <rect x="352" y="246" width="150" height="18" rx="9" fill="#DCFCE7"/>
    <rect x="352" y="298" width="430" height="16" rx="8" fill="#E2E8F0"/>
    <rect x="352" y="336" width="362" height="16" rx="8" fill="#E2E8F0"/>
    <rect x="352" y="432" width="320" height="74" rx="20" fill="#F8FAFC" stroke="#E2E8F0" stroke-width="3"/>
    <path d="M390 468h170" stroke="#CBD5E1" stroke-width="10" stroke-linecap="round"/>
    <path d="M390 493h100" stroke="#E2E8F0" stroke-width="10" stroke-linecap="round"/>
  </g>
  <g filter="url(#softShadow)">
    <circle cx="730" cy="470" r="92" fill="#FFFFFF" stroke="#16A34A" stroke-width="8"/>
    <circle cx="730" cy="470" r="58" fill="#DCFCE7"/>
    <path d="M694 470l22 22 50-50" stroke="#16A34A" stroke-width="18" stroke-linecap="round" stroke-linejoin="round"/>
  </g>
  <g filter="url(#softShadow)">
    <rect x="248" y="286" width="122" height="54" rx="18" fill="#FFFFFF" stroke="#BBF7D0" stroke-width="3"/>
    <path d="M280 314h56" stroke="#16A34A" stroke-width="10" stroke-linecap="round"/>
    <path d="M286 300l10 10 18-18" stroke="#16A34A" stroke-width="6" stroke-linecap="round" stroke-linejoin="round"/>
  </g>
  <circle cx="915" cy="320" r="12" fill="#BBF7D0"/>
  <circle cx="940" cy="590" r="8" fill="#86EFAC" opacity="0.95"/>
  <path d="M224 570l14-24 14 24" fill="#BBF7D0"/>
  <rect x="980" y="480" width="14" height="14" rx="4" fill="#86EFAC"/>
  <path d="M876 610c36-26 72-26 108 0" stroke="#86EFAC" stroke-width="6" stroke-linecap="round" opacity="0.75"/>
</svg>
