<svg xmlns="http://www.w3.org/2000/svg" width="1200" height="900" viewBox="0 0 1200 900" fill="none">
  <title>Empty state — error</title>
  <desc>Brand-aligned error illustration for TARIEL.</desc>

<defs>
  <filter id="shadow" x="-20%" y="-20%" width="140%" height="160%">
    <feDropShadow dx="0" dy="18" stdDeviation="24" flood-color="#0F172A" flood-opacity="0.10"/>
  </filter>
  <filter id="softShadow" x="-20%" y="-20%" width="140%" height="160%">
    <feDropShadow dx="0" dy="10" stdDeviation="16" flood-color="#0F172A" flood-opacity="0.08"/>
  </filter>
  <linearGradient id="blueGrad" x1="0" y1="0" x2="1" y2="1">
    <stop offset="0%" stop-color="#60A5FA"/>
    <stop offset="100%" stop-color="#2563EB"/>
  </linearGradient>
  <linearGradient id="greenGrad" x1="0" y1="0" x2="1" y2="1">
    <stop offset="0%" stop-color="#4ADE80"/>
    <stop offset="100%" stop-color="#16A34A"/>
  </linearGradient>
  <linearGradient id="redGrad" x1="0" y1="0" x2="1" y2="1">
    <stop offset="0%" stop-color="#F87171"/>
    <stop offset="100%" stop-color="#DC2626"/>
  </linearGradient>
  <radialGradient id="orbBlue" cx="50%" cy="50%" r="60%">
    <stop offset="0%" stop-color="#DBEAFE" stop-opacity="0.95"/>
    <stop offset="100%" stop-color="#DBEAFE" stop-opacity="0"/>
  </radialGradient>
  <radialGradient id="orbGreen" cx="50%" cy="50%" r="60%">
    <stop offset="0%" stop-color="#DCFCE7" stop-opacity="0.95"/>
    <stop offset="100%" stop-color="#DCFCE7" stop-opacity="0"/>
  </radialGradient>
  <radialGradient id="orbRed" cx="50%" cy="50%" r="60%">
    <stop offset="0%" stop-color="#FEE2E2" stop-opacity="0.95"/>
    <stop offset="100%" stop-color="#FEE2E2" stop-opacity="0"/>
  </radialGradient>
</defs>


    <g opacity="0.07" transform="translate(760 70) scale(0.42)">
      <g transform="translate(64.000,146.168) scale(0.825806452)">
        <path d="M 0.00 0.00 L 128.00 201.00 L 339.00 203.00 L 339.00 654.00 L 628.00 886.00 L 1038.00 474.00 L 1038.00 227.00 L 562.00 226.00 L 562.00 571.00 L 719.00 414.00 L 846.00 416.00 L 845.00 456.00 L 634.00 665.00 L 538.00 588.00 L 538.00 200.00 L 893.00 199.00 L 1085.00 0.00 Z M 362.00 478.00 L 516.00 601.00 L 515.00 768.00 L 361.00 644.00 Z M 1015.00 247.00 L 1016.00 467.00 L 626.00 858.00 L 538.00 787.00 L 538.00 618.00 L 639.00 694.00 L 867.00 463.00 L 867.00 393.00 L 712.00 392.00 L 584.00 520.00 L 582.00 249.00 Z M 37.00 20.00 L 1038.00 23.00 L 885.00 177.00 L 517.00 177.00 L 515.00 572.00 L 361.00 450.00 L 360.00 180.00 L 140.00 180.00 Z" fill="none" stroke="#DC2626" stroke-width="10" />
      </g>
    </g>

  <ellipse cx="600" cy="700" rx="210" ry="28" fill="#CBD5E1" opacity="0.35"/>
  <circle cx="600" cy="370" r="230" fill="url(#orbRed)"/>
  <g filter="url(#shadow)">
    <rect x="318" y="208" width="564" height="360" rx="32" fill="#FFFFFF" stroke="#E2E8F0" stroke-width="4"/>
    <rect x="352" y="246" width="150" height="18" rx="9" fill="#FEE2E2"/>
    <rect x="352" y="298" width="430" height="16" rx="8" fill="#E2E8F0"/>
    <rect x="352" y="336" width="362" height="16" rx="8" fill="#E2E8F0"/>
    <path d="M352 416h180l52-52h150" stroke="#FCA5A5" stroke-width="8" stroke-linecap="round" stroke-linejoin="round"/>
    <path d="M690 416l48 48 82-82" stroke="#FCA5A5" stroke-width="8" stroke-linecap="round" stroke-linejoin="round"/>
    <rect x="352" y="452" width="250" height="70" rx="18" fill="#F8FAFC" stroke="#E2E8F0" stroke-width="3"/>
    <path d="M390 488h90" stroke="#CBD5E1" stroke-width="10" stroke-linecap="round"/>
    <path d="M390 513h54" stroke="#E2E8F0" stroke-width="10" stroke-linecap="round"/>
  </g>
  <g filter="url(#softShadow)">
    <path d="M726 388l82 142c6 12-2 26-16 26H628c-14 0-22-14-16-26l82-142c7-12 25-12 32 0z" fill="#FFFFFF" stroke="#DC2626" stroke-width="8"/>
    <path d="M710 435v54" stroke="#DC2626" stroke-width="14" stroke-linecap="round"/>
    <circle cx="710" cy="516" r="8" fill="#DC2626"/>
  </g>
  <g filter="url(#softShadow)">
    <circle cx="290" cy="318" r="34" fill="#FFFFFF" stroke="#FCA5A5" stroke-width="4"/>
    <path d="M276 304l28 28M304 304l-28 28" stroke="#DC2626" stroke-width="8" stroke-linecap="round"/>
  </g>
  <circle cx="915" cy="320" r="12" fill="#FCA5A5"/>
  <circle cx="940" cy="590" r="8" fill="#FDE68A" opacity="0.9"/>
  <path d="M880 610c32-20 62-20 94 0" stroke="#FCA5A5" stroke-width="6" stroke-linecap="round" opacity="0.65"/>
  <path d="M236 565c30 16 70 16 100 0" stroke="#FDE68A" stroke-width="6" stroke-linecap="round"/>
</svg>
