<svg xmlns="http://www.w3.org/2000/svg" width="1024" height="1024" viewBox="0 0 1024 1024" fill="none">
  <title>TARIEL logo mark dark</title>
  <desc>Square TARIEL logo mark based on the provided monogram. Transparent background. Dark/base variant aligned with the horizontal dark asset.</desc>
  <g transform="translate(64.000,146.168) scale(0.825806452)">
    <path d="M 0.00 0.00 L 128.00 201.00 L 339.00 203.00 L 339.00 654.00 L 628.00 886.00 L 1038.00 474.00 L 1038.00 227.00 L 562.00 226.00 L 562.00 571.00 L 719.00 414.00 L 846.00 416.00 L 845.00 456.00 L 634.00 665.00 L 538.00 588.00 L 538.00 200.00 L 893.00 199.00 L 1085.00 0.00 Z M 362.00 478.00 L 516.00 601.00 L 515.00 768.00 L 361.00 644.00 Z M 1015.00 247.00 L 1016.00 467.00 L 626.00 858.00 L 538.00 787.00 L 538.00 618.00 L 639.00 694.00 L 867.00 463.00 L 867.00 393.00 L 712.00 392.00 L 584.00 520.00 L 582.00 249.00 Z M 37.00 20.00 L 1038.00 23.00 L 885.00 177.00 L 517.00 177.00 L 515.00 572.00 L 361.00 450.00 L 360.00 180.00 L 140.00 180.00 Z" fill="#2563EB" fill-rule="evenodd" clip-rule="evenodd"/>
  </g>
</svg>
