<svg xmlns="http://www.w3.org/2000/svg" width="2000" height="400" viewBox="0 0 2000 400" fill="none">
  <title>TARIEL logo horizontal</title>
  <desc>Horizontal TARIEL logo based on the provided monogram. Transparent background.</desc>
  <g transform="translate(279.366,50.000) scale(0.338600)">
    <path d="M 0.00 0.00 L 128.00 201.00 L 339.00 203.00 L 339.00 654.00 L 628.00 886.00 L 1038.00 474.00 L 1038.00 227.00 L 562.00 226.00 L 562.00 571.00 L 719.00 414.00 L 846.00 416.00 L 845.00 456.00 L 634.00 665.00 L 538.00 588.00 L 538.00 200.00 L 893.00 199.00 L 1085.00 0.00 Z M 362.00 478.00 L 516.00 601.00 L 515.00 768.00 L 361.00 644.00 Z M 1015.00 247.00 L 1016.00 467.00 L 626.00 858.00 L 538.00 787.00 L 538.00 618.00 L 639.00 694.00 L 867.00 463.00 L 867.00 393.00 L 712.00 392.00 L 584.00 520.00 L 582.00 249.00 Z M 37.00 20.00 L 1038.00 23.00 L 885.00 177.00 L 517.00 177.00 L 515.00 572.00 L 361.00 450.00 L 360.00 180.00 L 140.00 180.00 Z" fill="#2563EB" fill-rule="evenodd" clip-rule="evenodd"/>
  </g>
  <g transform="translate(755.416,301.850) scale(1,-1)">
    <path d="M 11.331 172.944 L 74.244 172.944 L 74.244 0.000 L 110.731 0.000 L 110.731 172.944 L 173.512 172.944 L 173.512 203.700 L 11.331 203.700 L 11.331 172.944 Z M 191.669 0.000 L 231.612 0.000 L 248.281 50.444 L 324.450 50.444 L 341.819 0.000 L 381.850 0.000 L 309.137 203.700 L 262.762 203.700 L 191.669 0.000 Z M 257.994 79.844 L 266.613 105.831 C 272.212 123.987 278.381 146.825 285.600 175.262 C 293.125 147.131 299.556 124.556 305.550 105.831 L 314.475 79.844 L 257.994 79.844 Z M 409.073 0.000 L 445.561 0.000 L 445.561 74.769 L 483.580 74.769 L 523.655 0.000 L 564.517 0.000 L 520.373 80.938 C 544.436 90.519 556.992 110.862 556.992 138.512 C 556.992 177.319 532.098 203.700 485.198 203.700 L 409.073 203.700 L 409.073 0.000 Z M 445.561 105.000 L 445.561 173.075 L 479.598 173.075 C 507.380 173.075 519.673 160.256 519.673 138.512 C 519.673 116.900 507.380 105.000 479.905 105.000 L 445.561 105.000 Z M 628.217 203.700 L 591.730 203.700 L 591.730 0.000 L 628.217 0.000 L 628.217 203.700 Z M 669.249 0.000 L 802.118 0.000 L 802.118 30.756 L 705.737 30.756 L 705.737 87.631 L 794.462 87.631 L 794.462 117.994 L 705.737 117.994 L 705.737 172.944 L 801.593 172.944 L 801.593 203.700 L 669.249 203.700 L 669.249 0.000 Z M 838.780 0.000 L 965.218 0.000 L 965.218 30.756 L 875.268 30.756 L 875.268 203.700 L 838.780 203.700 L 838.780 0.000 Z" fill="#0F172A"/>
  </g>
</svg>
